<?xml version="1.0" encoding="iso-8859-1"?>
<!-- Generator: Adobe Illustrator 21.0.0, SVG Export Plug-In . SVG Version: 6.00 Build 0)  -->
<svg version="1.1" id="Capa_1" xmlns="http://www.w3.org/2000/svg" xmlns:xlink="http://www.w3.org/1999/xlink" x="0px" y="0px"
	 viewBox="0 0 609.693 609.693" style="enable-background:new 0 0 609.693 609.693;" xml:space="preserve">
<g>
	<g>
		<g id="filled_outline_34_">
			<path style="fill:#FFA230;" d="M71.137,111.79h467.419l0,0v121.935l0,0H71.137c-33.675,0-60.968-27.293-60.968-60.968l0,0
				C10.169,139.083,37.462,111.79,71.137,111.79z"/>
			<path style="fill:#FDB62F;" d="M71.137,111.79c-33.634-0.041-60.927,27.192-60.968,60.825c-0.01,10.751,2.825,21.318,8.22,30.626
				c10.873-18.859,30.982-30.484,52.747-30.484h467.419V111.79C538.556,111.79,71.137,111.79,71.137,111.79z"/>
			<path style="fill:#543221;" d="M538.556,284.532h30.484c16.837,0,30.484,13.647,30.484,30.484l0,0
				c0,16.837-13.647,30.484-30.484,30.484h-30.484l0,0V284.532L538.556,284.532z"/>
			<polygon style="fill:#6B962A;" points="477.588,264.209 91.459,467.435 20.33,203.241 315.008,10.177 			"/>
			<polygon style="fill:#80A834;" points="528.395,315.016 91.459,477.596 20.33,203.241 447.105,40.661 			"/>
			<path style="fill:#6B962A;" d="M80.983,234.741l305.154-112.79l0,0c6.229,12.458,18.961,20.323,32.882,20.323h7.763
				l50.806,142.258L126.16,408.997L80.983,234.741z"/>
			<path style="fill:#75462E;" d="M538.556,599.532H71.137c-33.675,0-60.968-27.293-60.968-60.968l0,0V172.758l0,0
				c0,33.674,27.293,60.968,60.968,60.968h467.419V599.532z"/>
			<path style="fill:#6B402A;" d="M53.253,596.859c5.792,1.768,11.828,2.672,17.884,2.672h467.419V233.725h-48.703
				C349.383,429.696,157.03,544.976,53.253,596.859z"/>
			<path style="fill:#5C3724;" d="M497.911,294.693h-34.833V274.37h34.833V294.693z M422.433,294.693h-40.645V274.37h40.645V294.693
				z M341.143,294.693h-40.645V274.37h40.645V294.693z M259.852,294.693h-40.645V274.37h40.645V294.693z M178.562,294.693h-40.645
				V274.37h40.645V294.693z M97.272,294.693H71.137c-5.64-0.02-11.259-0.701-16.746-2.032l4.755-19.713
				c3.932,0.935,7.956,1.412,11.99,1.423h26.115L97.272,294.693z"/>
			<path style="fill:#5C3724;" d="M497.911,558.887h-34.833v-20.323h34.833V558.887z M422.433,558.887h-40.645v-20.323h40.645
				V558.887z M341.143,558.887h-40.645v-20.323h40.645V558.887z M259.852,558.887h-40.645v-20.323h40.645V558.887z M178.562,558.887
				h-40.645v-20.323h40.645V558.887z M97.272,558.887H71.137c-5.64-0.02-11.259-0.701-16.746-2.032l4.755-19.713
				c3.932,0.935,7.956,1.412,11.99,1.423h26.115L97.272,558.887z"/>
			<path style="fill:#875339;" d="M569.04,467.435H416.621c-33.674,0-60.968-27.293-60.968-60.968l0,0
				c0-33.674,27.293-60.968,60.968-60.968H569.04c16.837,0,30.484-13.647,30.484-30.484l0,0v121.935
				C599.524,453.788,585.877,467.435,569.04,467.435z"/>
			<circle style="fill:#5C3724;" cx="416.621" cy="406.467" r="20.323"/>
			<path d="M569.04,274.37h-20.323V111.79c0-5.609-4.552-10.161-10.161-10.161h-61.547l-20.211-64.016
				c-1.687-5.355-7.387-8.322-12.742-6.635c-0.193,0.061-0.376,0.122-0.569,0.193l-82.754,31.541L323.564,4.7
				c-1.463-2.286-3.78-3.892-6.432-4.461c-2.652-0.589-5.436-0.081-7.692,1.433l-152.562,99.957H71.137
				c-39.263,0.041-71.088,31.866-71.129,71.129v365.806c0.041,39.263,31.866,71.088,71.129,71.129h467.419
				c5.609,0,10.161-4.552,10.161-10.161V477.596h20.323c22.446,0,40.645-18.199,40.645-40.645V315.016
				C609.685,292.569,591.486,274.37,569.04,274.37z M569.04,294.693c11.228,0,20.323,9.094,20.323,20.323
				c0,11.228-9.094,20.323-20.323,20.323h-20.323v-40.645C548.717,294.693,569.04,294.693,569.04,294.693z M528.395,121.951v101.613
				h-12.874l-32.089-101.613C483.431,121.951,528.395,121.951,528.395,121.951z M494.212,223.564h-29.62l-28.167-84.501
				c-1.382-4.156-5.264-6.95-9.643-6.95c-10.324,0.03-20.231-4.075-27.507-11.391l-5.955-5.955
				c-2.805-2.805-6.991-3.719-10.71-2.347L81.969,223.564H71.137c-13.545,0-26.531-5.426-36.052-15.069L440.662,54.043
				L494.212,223.564z M443.172,223.564H140.559l242.997-89.826l1.351,1.351c9.257,9.318,21.369,15.252,34.396,16.878
				L443.172,223.564z M311.959,24.311l29.336,45.817l-237.002,90.253L311.959,24.311z M71.137,121.951h54.719L23.287,189.158
				c-1.89-5.264-2.896-10.812-2.957-16.4C20.361,144.712,43.092,121.982,71.137,121.951z M528.395,589.37H71.137
				c-28.045-0.03-50.776-22.761-50.806-50.806V222.548c0.091,0.091,0.203,0.173,0.295,0.274c0.793,0.793,1.636,1.524,2.459,2.276
				c0.823,0.752,1.707,1.616,2.611,2.368s1.778,1.362,2.672,2.032c0.894,0.671,1.849,1.443,2.825,2.114
				c0.975,0.671,1.92,1.189,2.876,1.778c0.955,0.589,1.981,1.26,3.048,1.829c1.067,0.569,2.083,1.016,3.13,1.534
				c1.047,0.518,2.032,1.016,3.109,1.504c1.077,0.488,2.307,0.864,3.465,1.28s2.032,0.813,3.099,1.138
				c1.28,0.406,2.601,0.691,3.912,1.016c1.016,0.244,1.941,0.549,2.937,0.752c1.494,0.315,3.048,0.498,4.562,0.711
				c0.854,0.112,1.677,0.295,2.54,0.386c2.418,0.234,4.837,0.356,7.265,0.345h13.21l0.152,0.396l1.087-0.396h442.809v91.452H416.621
				c-39.284,0-71.129,31.845-71.129,71.129s31.845,71.129,71.129,71.129h111.774V589.37z M589.363,436.951
				c0,11.228-9.094,20.323-20.323,20.323H416.621c-28.055,0-50.806-22.751-50.806-50.806s22.751-50.806,50.806-50.806H569.04
				c2.449-0.02,4.888-0.274,7.296-0.742c0.579-0.102,1.148-0.213,1.717-0.345c2.296-0.498,4.552-1.199,6.727-2.093l0.346-0.163
				c1.453-0.62,2.865-1.331,4.237-2.114C589.363,350.204,589.363,436.951,589.363,436.951z"/>
			<rect x="219.207" y="274.37" width="40.645" height="20.323"/>
			<rect x="137.917" y="274.37" width="40.645" height="20.323"/>
			<rect x="463.078" y="274.37" width="34.833" height="20.323"/>
			<rect x="381.788" y="274.37" width="40.645" height="20.323"/>
			<path d="M59.147,272.948l-4.755,19.713c5.487,1.331,11.106,2.012,16.746,2.032h26.135V274.37H71.137
				C67.093,274.36,63.069,273.883,59.147,272.948z"/>
			<rect x="300.497" y="274.37" width="40.645" height="20.323"/>
			<path d="M59.147,537.141l-4.755,19.713c5.487,1.331,11.106,2.012,16.746,2.032h26.135v-20.323H71.137
				C67.093,538.554,63.069,538.076,59.147,537.141z"/>
			<rect x="463.078" y="538.564" width="34.833" height="20.323"/>
			<rect x="219.207" y="538.564" width="40.645" height="20.323"/>
			<rect x="381.788" y="538.564" width="40.645" height="20.323"/>
			<rect x="137.917" y="538.564" width="40.645" height="20.323"/>
			<rect x="300.497" y="538.564" width="40.645" height="20.323"/>
			<path d="M416.621,375.983c-16.837,0-30.484,13.647-30.484,30.484s13.647,30.484,30.484,30.484
				c16.837,0,30.484-13.647,30.484-30.484S433.458,375.983,416.621,375.983z M416.621,416.629c-5.609,0-10.161-4.552-10.161-10.161
				s4.552-10.161,10.161-10.161s10.161,4.552,10.161,10.161S422.23,416.629,416.621,416.629z"/>
		</g>
	</g>
</g>
<g>
</g>
<g>
</g>
<g>
</g>
<g>
</g>
<g>
</g>
<g>
</g>
<g>
</g>
<g>
</g>
<g>
</g>
<g>
</g>
<g>
</g>
<g>
</g>
<g>
</g>
<g>
</g>
<g>
</g>
</svg>
