<svg xmlns="http://www.w3.org/2000/svg" data-name="Layer 1" viewBox="0 0 64 80" x="0px" y="0px"><title>technology-idea-creative-knowledge-education</title><path fill="#535353" d="M58,2a3.99158,3.99158,0,0,0-1,7.858V12H49a.99943.99943,0,0,0-1,1v6h2V14h8a.99943.99943,0,0,0,1-1V9.858A3.99158,3.99158,0,0,0,58,2Zm0,6a2,2,0,1,1,2-2A2.0026,2.0026,0,0,1,58,8Z"/><path fill="#535353" d="M5,9.858V13a.99943.99943,0,0,0,1,1h8v6h2V13a.99943.99943,0,0,0-1-1H7V9.858a4,4,0,1,0-2,0ZM6,4A2,2,0,1,1,4,6,2.0026,2.0026,0,0,1,6,4Z"/><path fill="#535353" d="M59,48.142V31a.99943.99943,0,0,0-1-1H54v2h3V48.142a4,4,0,1,0,2,0ZM58,54a2,2,0,1,1,2-2A2.0026,2.0026,0,0,1,58,54Z"/><path fill="#535353" d="M52,32H51V29.99316a1.00061,1.00061,0,0,0-.68555-.94921l-3.43457-1.1377a15.77928,15.77928,0,0,0-.76172-1.833l1.45118-3.05664a.999.999,0,0,0-.08887-1.00879,19.05188,19.05188,0,0,0-4.48828-4.48828,1.00212,1.00212,0,0,0-1.00879-.08887l-3.05664,1.45118a15.77928,15.77928,0,0,0-1.833-.76172l-1.1377-3.43457A1.00061,1.00061,0,0,0,35.00684,14H28.99316a1.00061,1.00061,0,0,0-.94921.68555L26.89062,18.167l-1.77343.73633L22.0166,17.43066a1.0044,1.0044,0,0,0-1.00879.08887,19.05188,19.05188,0,0,0-4.48828,4.48828.999.999,0,0,0-.08887,1.00879l1.47266,3.10059L17.167,27.89062,13.68555,29.044A1.00061,1.00061,0,0,0,13,29.99316V32H12a.99943.99943,0,0,0-1,1,20.81719,20.81719,0,0,0,8.44238,16.82129A8.52324,8.52324,0,0,1,23,56.64746V57a.99943.99943,0,0,0,1,1h1.10107A5.00837,5.00837,0,0,0,30,62h4a5.00837,5.00837,0,0,0,4.89893-4H40a.99943.99943,0,0,0,1-1v-.35254a8.52324,8.52324,0,0,1,3.55762-6.82617A20.81719,20.81719,0,0,0,53,33,.99943.99943,0,0,0,52,32ZM15,30.71582l3.22949-1.07031a1.00039,1.00039,0,0,0,.60938-.56543l1.082-2.60645a1.00222,1.00222,0,0,0-.02051-.8125l-1.40625-2.96191a17.05738,17.05738,0,0,1,3.20508-3.20508l2.96191,1.40625a.99842.99842,0,0,0,.8125.02051l2.60645-1.082a1.00039,1.00039,0,0,0,.56543-.60938L29.71582,16h4.56836l1.07031,3.22949a.99645.99645,0,0,0,.65723.6416,13.70647,13.70647,0,0,1,2.42871,1.00879,1.00339,1.00339,0,0,0,.89844.02051l2.96191-1.40625a17.05738,17.05738,0,0,1,3.20508,3.20508l-1.40625,2.96191a1.0004,1.0004,0,0,0,.02051.89844,13.70647,13.70647,0,0,1,1.00879,2.42871.99645.99645,0,0,0,.6416.65723L49,30.71582V32H43.94934a11.99031,11.99031,0,0,0-23.89868,0H15ZM35,27H29a.99943.99943,0,0,0-1,1v4H22.05072a9.99934,9.99934,0,0,1,19.89856,0H36V28A.99943.99943,0,0,0,35,27Zm-1,2v3H30V29Zm0,31H30a2.995,2.995,0,0,1-2.81567-2h9.6314A2.99507,2.99507,0,0,1,34,60Zm9.36035-11.78027A10.55037,10.55037,0,0,0,39.02051,56H33V50a1.0004,1.0004,0,0,0-.55273-.89453l-2.42188-1.21094A5.442,5.442,0,0,1,27,43h2a2.0026,2.0026,0,0,0,2,2h2a2.0026,2.0026,0,0,0,2-2h2a5.442,5.442,0,0,1-3.02539,4.89453l-.42188.21094.89454,1.78906.42187-.21094A7.4325,7.4325,0,0,0,39,43a2.0026,2.0026,0,0,0-2-2H35a2.0026,2.0026,0,0,0-2,2H31a2.0026,2.0026,0,0,0-2-2H27a2.0026,2.0026,0,0,0-2,2,7.4325,7.4325,0,0,0,4.13086,6.68359L31,50.61816V56H24.97949a10.55037,10.55037,0,0,0-4.33984-7.78027A18.829,18.829,0,0,1,13.02539,34H50.97461A18.829,18.829,0,0,1,43.36035,48.21973Z"/><path fill="#535353" d="M33,12V9.858a4,4,0,1,0-2,0V12ZM30,6a2,2,0,1,1,2,2A2.0026,2.0026,0,0,1,30,6Z"/><path fill="#535353" d="M5,31V48.142a4,4,0,1,0,2,0V32h3V30H6A.99943.99943,0,0,0,5,31ZM8,52a2,2,0,1,1-2-2A2.0026,2.0026,0,0,1,8,52Z"/></svg>
