<svg xmlns="http://www.w3.org/2000/svg" xmlns:xlink="http://www.w3.org/1999/xlink" version="1.1" x="0px" y="0px" viewBox="0 0 100 125" enable-background="new 0 0 100 100" xml:space="preserve"><g><path fill="#535353" d="M68.902,87.088c0,0.965-0.785,1.75-1.75,1.75H30.818c-0.965,0-1.75-0.785-1.75-1.75v-9.005h35.307v-2.5H29.068V12.771   c0-0.965,0.785-1.75,1.75-1.75h36.334c0.965,0,1.75,0.785,1.75,1.75v6.313H33.75v2.5h35.152v6.839h2.5V12.771   c0-2.343-1.906-4.25-4.25-4.25H30.818c-2.343,0-4.25,1.907-4.25,4.25v74.317c0,2.344,1.907,4.25,4.25,4.25h36.334   c2.344,0,4.25-1.906,4.25-4.25V75.125h-2.5V87.088z"/><rect fill="#535353" x="45.838" y="13.75" width="6.294" height="2.5" /><path fill="#535353" d="M44.902,83.576c0,2.251,1.832,4.083,4.083,4.083s4.083-1.832,4.083-4.083s-1.832-4.083-4.083-4.083   S44.902,81.325,44.902,83.576z M50.568,83.576c0,0.873-0.71,1.583-1.583,1.583s-1.583-0.71-1.583-1.583s0.71-1.583,1.583-1.583   S50.568,82.703,50.568,83.576z"/><rect fill="#535353" x="16" y="32.505" width="2.5" height="3.834"/><rect x="16" y="40.505" width="2.5" height="3.834" fill="#535353"/><rect fill="#535353" x="19.333" y="37.172" width="3.833" height="2.5"/><rect fill="#535353" x="11.333" y="37.172" width="3.833" height="2.5"/><rect fill="#535353" x="79.25" y="14.304" width="2.5" height="3.833"/><rect fill="#535353" x="79.25" y="22.304" width="2.5" height="3.833"/><rect fill="#535353" x="82.583" y="18.971" width="3.834" height="2.5"/><rect fill="#535353" x="74.583" y="18.971" width="3.834" height="2.5"/><path fill="#535353" d="M80.726,47.735l1.31-0.261l-0.347-1.29c-0.422-1.572-1.045-3.119-1.851-4.598l-0.66-1.211l-1.141,0.776   c-1.654,1.126-4.021,0.91-5.442-0.511c-1.478-1.478-1.67-3.792-0.459-5.503l0.798-1.125l-1.198-0.683   c-1.485-0.847-3.046-1.507-4.64-1.962l-1.349-0.385l-0.228,1.385c-0.342,2.082-2.12,3.592-4.229,3.592s-3.887-1.511-4.229-3.592   l-0.228-1.385l-1.349,0.385c-1.611,0.46-3.174,1.118-4.643,1.956l-1.2,0.684l0.8,1.126c1.216,1.711,1.025,4.028-0.455,5.508   c-1.423,1.423-3.797,1.636-5.45,0.504l-1.141-0.78l-0.662,1.213c-0.79,1.447-1.41,2.997-1.843,4.607l-0.348,1.291l1.312,0.26   c2,0.397,3.451,2.167,3.451,4.208c0,2.011-1.369,3.729-3.33,4.179l-1.3,0.299l0.381,1.277c0.46,1.541,1.113,3.051,1.94,4.485   l0.64,1.109l1.093-0.666c1.646-1.002,3.893-0.746,5.257,0.619c1.367,1.367,1.637,3.499,0.656,5.185L50,69.537l1.121,0.617   c1.441,0.794,2.949,1.414,4.484,1.843l1.219,0.341l0.325-1.224c0.499-1.876,2.202-3.187,4.142-3.187   c1.94,0,3.644,1.311,4.142,3.187l0.325,1.225l1.22-0.341c1.538-0.431,3.047-1.05,4.484-1.842l1.123-0.617l-0.646-1.107   c-0.982-1.685-0.714-3.817,0.654-5.186c1.366-1.366,3.616-1.621,5.264-0.616l1.093,0.668l0.642-1.109   c0.805-1.394,1.454-2.904,1.931-4.488l0.385-1.28l-1.303-0.299c-1.96-0.449-3.329-2.167-3.329-4.178   C77.275,49.903,78.727,48.133,80.726,47.735z M78.746,58.121c-0.229,0.617-0.487,1.218-0.775,1.8   c-0.752-0.278-1.552-0.422-2.362-0.422c-1.808,0-3.506,0.703-4.782,1.979c-1.855,1.855-2.439,4.594-1.598,7.015   c-0.603,0.286-1.215,0.538-1.835,0.755c-1.119-2.301-3.473-3.82-6.103-3.82c-2.628,0-4.982,1.52-6.102,3.819   c-0.619-0.217-1.231-0.47-1.834-0.756c0.84-2.421,0.255-5.158-1.6-7.013c-1.276-1.276-2.974-1.979-4.781-1.979   c-0.808,0-1.606,0.144-2.357,0.42c-0.294-0.59-0.555-1.189-0.782-1.797c2.392-1.082,3.97-3.462,3.97-6.179   c0-2.765-1.683-5.215-4.152-6.258c0.208-0.615,0.449-1.217,0.719-1.804c0.815,0.336,1.692,0.511,2.591,0.511   c1.81,0,3.512-0.705,4.792-1.985c2.005-2.005,2.519-4.978,1.422-7.492c0.587-0.285,1.187-0.538,1.797-0.758   c0.999,2.559,3.467,4.301,6.316,4.301c2.849,0,5.317-1.741,6.315-4.3c0.607,0.221,1.206,0.475,1.796,0.763   c-1.093,2.512-0.578,5.483,1.425,7.486c1.28,1.281,2.983,1.986,4.794,1.986c0.894,0,1.767-0.173,2.578-0.506   c0.275,0.591,0.517,1.192,0.725,1.799c-2.467,1.044-4.148,3.494-4.148,6.256C74.775,54.66,76.354,57.04,78.746,58.121z"/><path fill="#535353" d="M64.036,49.131c1.278-0.878,2.12-2.347,2.12-4.011c0-2.683-2.183-4.866-4.865-4.866s-4.865,2.183-4.865,4.866   c0,1.664,0.842,3.133,2.12,4.011c-2.944,1.114-5.047,3.954-5.047,7.283v5.236h15.584v-5.236   C69.083,53.085,66.98,50.245,64.036,49.131z M61.291,42.754c1.304,0,2.365,1.061,2.365,2.366c0,1.304-1.062,2.365-2.365,2.365   s-2.365-1.061-2.365-2.365C58.926,43.815,59.987,42.754,61.291,42.754z M66.583,59.15H55.999v-2.736   c0-2.918,2.374-5.292,5.292-5.292s5.292,2.374,5.292,5.292V59.15z"/><rect fill="#535353" x="33.75" y="35.75" width="6.395" height="2.5"/><rect fill="#535353" x="33.75" y="65.083" width="6.395" height="2.5"/><rect fill="#535353" x="82.22" y="35.75" width="6.395" height="2.5"/><rect fill="#535353" x="82.22" y="65.083" width="6.395" height="2.5"/></g></svg>
