<svg xmlns="http://www.w3.org/2000/svg" xmlns:xlink="http://www.w3.org/1999/xlink" version="1.1" x="0px" y="0px" viewBox="0 0 64 80" style="enable-background:new 0 0 64 64;" xml:space="preserve"><g><path d="M30.3,14.4l0.2,0c1.7,0,3.5,0.4,5.3,1.3c3.2,1.6,5.3,5.1,5.6,9.1c0.1,1,0.9,1.8,1.9,1.8c0,0,0.1,0,0.1,0   c1.1-0.1,1.8-1,1.8-2c-0.4-5.3-3.3-10-7.7-12.2c-2.3-1.2-4.7-1.7-7-1.7h-0.2c-1.1,0-1.9,0.9-1.9,1.9S29.2,14.4,30.3,14.4z"/><path d="M52,28.7c-1-0.3-2.1,0.2-2.4,1.2c-0.5,1.4-1.1,2.8-2,4.3c-0.6,1-2,3.4-5.5,9.1c-0.1,0.2-0.2,0.4-0.3,0.4   c-0.5,0.8-1.4,1.4-2.4,1.4H24.6c-1,0-1.9-0.5-2.4-1.4c0,0-0.1-0.2-0.2-0.4c-3.5-5.7-4.9-8.1-5.5-9.1c-2.4-4.3-3.3-8-3-12   c0.4-6.7,4.2-12.6,9.8-15.4c0.5-0.2,1-0.5,1.5-0.7c1-0.4,1.4-1.5,1-2.5c-0.4-1-1.5-1.4-2.5-1c-0.6,0.2-1.1,0.5-1.7,0.8   C14.7,6.9,10.1,14,9.6,22c-0.3,4.7,0.8,9,3.5,14c0.8,1.6,2.7,4.7,5.6,9.3l0.2,0.3c0.2,0.4,0.4,0.7,0.7,1v6.7c0,3.3,2.7,5.9,5.9,5.9   h0.6c1.1,2.2,3.3,3.7,5.9,3.7s4.8-1.5,5.9-3.7h0.6c3.3,0,5.9-2.7,5.9-5.9v-6.7c0.3-0.3,0.5-0.6,0.7-0.9l0.2-0.3   c2.9-4.6,4.8-7.7,5.6-9.3c0.9-1.7,1.7-3.3,2.2-4.9C53.5,30.2,53,29.1,52,28.7z"/><path d="M42.6,3.5C39.1,1.8,35.6,0.9,32,1c-1.1,0-1.9,0.9-1.9,1.9c0,1.1,0.9,1.9,1.9,1.9c3-0.1,5.9,0.6,8.8,2.1   c5.6,2.8,9.3,8.7,9.8,15.4c0.1,1,0.9,1.8,1.9,1.8c0,0,0.1,0,0.1,0c1.1-0.1,1.8-1,1.8-2C53.9,14,49.4,6.9,42.6,3.5z"/><ellipse transform="matrix(0.7071 -0.7071 0.7071 0.7071 -7.8524 29.2733)" cx="31.4" cy="24.1" rx="4.2" ry="4.2"/></g></svg>
