<svg xmlns="http://www.w3.org/2000/svg" xmlns:xlink="http://www.w3.org/1999/xlink" version="1.1" x="0px" y="0px" viewBox="0 0 512 640" enable-background="new 0 0 512 512" xml:space="preserve"><g><path fill="#535353" d="M485.4,321.5V51.2c13.6,0,24.6-11,24.6-24.6S499,2,485.4,2H26.6C13,2,2,13,2,26.6s11,24.6,24.6,24.6v270.4   C13,321.5,2,332.6,2,346.1s11,24.6,24.6,24.6h135.2L104.5,510h66.6l19.1-41h131.6l19.1,41h66.6l-57.4-139.3h135.2   c13.6,0,24.6-11,24.6-24.6S499,321.5,485.4,321.5z M18.4,26.6c0-4.5,3.7-8.2,8.2-8.2h458.8c4.5,0,8.2,3.7,8.2,8.2   c0,4.5-3.7,8.2-8.2,8.2H26.6C22.1,34.8,18.4,31.1,18.4,26.6z M43,51.2H469v270.4H43V51.2z M383.1,493.6h-31.7l-19.1-41H179.8   l-19.1,41h-31.7l50.6-122.9h32.1l-22.9,65.5h134.5l-22.9-65.5h32.1L383.1,493.6z M300.2,419.9h-88.3l17.2-49.2H283L300.2,419.9z    M485.4,354.3h-142h-66.2h-42.5h-66.2h-142c-4.5,0-8.2-3.7-8.2-8.2c0-4.5,3.7-8.2,8.2-8.2h458.8c4.5,0,8.2,3.7,8.2,8.2   C493.6,350.6,489.9,354.3,485.4,354.3z"/><path fill="#535353" d="M370.7,264.2h-16.4v-98.3h-90.1v-17.2c18.7-3.8,32.8-20.4,32.8-40.1c0-22.6-18.4-41-41-41   c-22.6,0-41,18.4-41,41c0,19.8,14.1,36.3,32.8,40.1v17.2h-81.9v16.4h-16.4v-24.6H83.9v65.5h65.6v-24.6h16.4v65.5h-16.4v-24.6H83.9   v65.5h65.6v-24.6h32.8v-98.3h65.5v24.6h-24.6V256h65.6v-49.2h-24.6v-24.6h73.7v98.3h32.8v24.6h65.5v-65.5h-65.5V264.2z    M231.4,108.5c0-13.6,11-24.6,24.6-24.6c13.6,0,24.6,11,24.6,24.6s-11,24.6-24.6,24.6C242.4,133.1,231.4,122.1,231.4,108.5z    M133.1,206.8h-32.8v-32.8h32.8V206.8z M133.1,288.8h-32.8V256h32.8V288.8z M272.4,223.2v16.4h-32.8v-16.4h8.2h16.4H272.4z    M387.1,256h32.8v32.8h-32.8V256z"/></g><text x="0" y="527" fill="#000000" font-size="5px" font-weight="bold" font-family="'Helvetica Neue', Helvetica, Arial-Unicode, Arial, Sans-serif">Created by Icon Fair</text><text x="0" y="532" fill="#000000" font-size="5px" font-weight="bold" font-family="'Helvetica Neue', Helvetica, Arial-Unicode, Arial, Sans-serif">from the Noun Project</text></svg>
